HIERARCHY
ROOT Hips
{
	OFFSET 0.000000 91.740540 0.000000
	CHANNELS 6 Xposition Yposition Zposition Xrotation Yrotation Zrotation
	JOINT Spine
	{
		OFFSET 0.000013 10.005943 -0.000000
		CHANNELS 6 Xposition Yposition Zposition Xrotation Yrotation Zrotation
		JOINT Spine1
		{
			OFFSET -0.000001 21.665001 0.000000
			CHANNELS 6 Xposition Yposition Zposition Xrotation Yrotation Zrotation
			JOINT Neck
			{
				OFFSET -0.000001 25.832993 0.000000
				CHANNELS 6 Xposition Yposition Zposition Xrotation Yrotation Zrotation
				JOINT Head
				{
					OFFSET -0.000000 13.820404 2.436909
					CHANNELS 6 Xposition Yposition Zposition Xrotation Yrotation Zrotation
					JOINT HeadNub
					{
						OFFSET -0.000001 21.600510 0.000000
						CHANNELS 6 Xposition Yposition Zposition Xrotation Yrotation Zrotation
						End Site
						{
							OFFSET 0.000001 0.000000 21.600515
						}
					}
				}
			}
			JOINT LeftShoulder
			{
				OFFSET 3.044999 21.665009 -0.000000
				CHANNELS 6 Xposition Yposition Zposition Xrotation Yrotation Zrotation
				JOINT LeftArm
				{
					OFFSET 15.550001 0.000000 -0.000001
					CHANNELS 6 Xposition Yposition Zposition Xrotation Yrotation Zrotation
					JOINT LeftForeArm
					{
						OFFSET 26.969997 0.000061 -0.000001
						CHANNELS 6 Xposition Yposition Zposition Xrotation Yrotation Zrotation
						JOINT LeftHand
						{
							OFFSET 26.562424 0.000000 -0.000002
							CHANNELS 6 Xposition Yposition Zposition Xrotation Yrotation Zrotation
							JOINT LeftHandThumb1
							{
								OFFSET 3.791183 -1.249039 3.194315
								CHANNELS 6 Xposition Yposition Zposition Xrotation Yrotation Zrotation
								JOINT LeftHandThumb2
								{
									OFFSET 3.559998 0.000000 0.000000
									CHANNELS 6 Xposition Yposition Zposition Xrotation Yrotation Zrotation
									JOINT LeftHandThumb3
									{
										OFFSET 2.582520 0.000000 0.000000
										CHANNELS 6 Xposition Yposition Zposition Xrotation Yrotation Zrotation
										End Site
										{
											OFFSET 0.000000 0.000000 2.582520
										}
									}
								}
							}
							JOINT LeftHandIndex1
							{
								OFFSET 9.811699 0.000000 2.347278
								CHANNELS 6 Xposition Yposition Zposition Xrotation Yrotation Zrotation
								JOINT LeftHandIndex2
								{
									OFFSET 3.256775 0.000000 -0.000000
									CHANNELS 6 Xposition Yposition Zposition Xrotation Yrotation Zrotation
									JOINT LeftHandIndex3
									{
										OFFSET 2.772133 0.000000 0.000000
										CHANNELS 6 Xposition Yposition Zposition Xrotation Yrotation Zrotation
										End Site
										{
											OFFSET 0.000000 -2.772125 0.000000
										}
									}
								}
							}
							JOINT LeftHandMiddle1
							{
								OFFSET 10.341545 0.000000 0.312984
								CHANNELS 6 Xposition Yposition Zposition Xrotation Yrotation Zrotation
								JOINT LeftHandMiddle2
								{
									OFFSET 3.430656 0.000000 -0.000000
									CHANNELS 6 Xposition Yposition Zposition Xrotation Yrotation Zrotation
									JOINT LeftHandMiddle3
									{
										OFFSET 2.954636 0.000000 -0.000000
										CHANNELS 6 Xposition Yposition Zposition Xrotation Yrotation Zrotation
										End Site
										{
											OFFSET 0.000000 -2.954636 0.000000
										}
									}
								}
							}
							JOINT LeftHandRing1
							{
								OFFSET 9.988403 0.000000 -1.780175
								CHANNELS 6 Xposition Yposition Zposition Xrotation Yrotation Zrotation
								JOINT LeftHandRing2
								{
									OFFSET 3.241203 0.000000 -0.000000
									CHANNELS 6 Xposition Yposition Zposition Xrotation Yrotation Zrotation
									JOINT LeftHandRing3
									{
										OFFSET 2.763329 0.000000 -0.000000
										CHANNELS 6 Xposition Yposition Zposition Xrotation Yrotation Zrotation
										End Site
										{
											OFFSET 0.000000 -2.763336 0.000000
										}
									}
								}
							}
							JOINT LeftHandPinky1
							{
								OFFSET 8.983940 0.000000 -3.651950
								CHANNELS 6 Xposition Yposition Zposition Xrotation Yrotation Zrotation
								JOINT LeftHandPinky2
								{
									OFFSET 2.784111 0.000000 -0.000000
									CHANNELS 6 Xposition Yposition Zposition Xrotation Yrotation Zrotation
									JOINT LeftHandPinky3
									{
										OFFSET 1.994583 0.000000 0.000000
										CHANNELS 6 Xposition Yposition Zposition Xrotation Yrotation Zrotation
										End Site
										{
											OFFSET 0.000000 -1.994583 0.000000
										}
									}
								}
							}
						}
					}
				}
			}
			JOINT RightShoulder
			{
				OFFSET -3.045001 21.664993 0.000000
				CHANNELS 6 Xposition Yposition Zposition Xrotation Yrotation Zrotation
				JOINT RightArm
				{
					OFFSET -15.550001 0.000061 0.000001
					CHANNELS 6 Xposition Yposition Zposition Xrotation Yrotation Zrotation
					JOINT RightForeArm
					{
						OFFSET -26.970001 0.000015 0.000115
						CHANNELS 6 Xposition Yposition Zposition Xrotation Yrotation Zrotation
						JOINT RightHand
						{
							OFFSET -26.562420 -0.000031 0.000113
							CHANNELS 6 Xposition Yposition Zposition Xrotation Yrotation Zrotation
							JOINT RightHandThumb1
							{
								OFFSET -3.791161 -1.249054 3.194327
								CHANNELS 6 Xposition Yposition Zposition Xrotation Yrotation Zrotation
								JOINT RightHandThumb2
								{
									OFFSET -3.559998 0.000000 0.000015
									CHANNELS 6 Xposition Yposition Zposition Xrotation Yrotation Zrotation
									JOINT RightHandThumb3
									{
										OFFSET -2.582520 0.000000 0.000011
										CHANNELS 6 Xposition Yposition Zposition Xrotation Yrotation Zrotation
										End Site
										{
											OFFSET -0.000008 0.000000 -2.582520
										}
									}
								}
							}
							JOINT RightHandIndex1
							{
								OFFSET -9.811684 -0.000015 2.347322
								CHANNELS 6 Xposition Yposition Zposition Xrotation Yrotation Zrotation
								JOINT RightHandIndex2
								{
									OFFSET -3.256775 0.000000 0.000014
									CHANNELS 6 Xposition Yposition Zposition Xrotation Yrotation Zrotation
									JOINT RightHandIndex3
									{
										OFFSET -2.772133 0.000000 0.000012
										CHANNELS 6 Xposition Yposition Zposition Xrotation Yrotation Zrotation
										End Site
										{
											OFFSET 0.000000 -2.772125 0.000000
										}
									}
								}
							}
							JOINT RightHandMiddle1
							{
								OFFSET -10.341537 -0.000015 0.313044
								CHANNELS 6 Xposition Yposition Zposition Xrotation Yrotation Zrotation
								JOINT RightHandMiddle2
								{
									OFFSET -3.430656 0.000000 0.000015
									CHANNELS 6 Xposition Yposition Zposition Xrotation Yrotation Zrotation
									JOINT RightHandMiddle3
									{
										OFFSET -2.954636 0.000000 0.000013
										CHANNELS 6 Xposition Yposition Zposition Xrotation Yrotation Zrotation
										End Site
										{
											OFFSET 0.000000 -2.954636 0.000000
										}
									}
								}
							}
							JOINT RightHandRing1
							{
								OFFSET -9.988403 -0.000015 -1.780128
								CHANNELS 6 Xposition Yposition Zposition Xrotation Yrotation Zrotation
								JOINT RightHandRing2
								{
									OFFSET -3.241203 0.000000 0.000014
									CHANNELS 6 Xposition Yposition Zposition Xrotation Yrotation Zrotation
									JOINT RightHandRing3
									{
										OFFSET -2.763329 0.000000 0.000012
										CHANNELS 6 Xposition Yposition Zposition Xrotation Yrotation Zrotation
										End Site
										{
											OFFSET 0.000000 -2.763336 0.000000
										}
									}
								}
							}
							JOINT RightHandPinky1
							{
								OFFSET -8.983955 -0.000015 -3.651913
								CHANNELS 6 Xposition Yposition Zposition Xrotation Yrotation Zrotation
								JOINT RightHandPinky2
								{
									OFFSET -2.784111 0.000000 0.000012
									CHANNELS 6 Xposition Yposition Zposition Xrotation Yrotation Zrotation
									JOINT RightHandPinky3
									{
										OFFSET -1.994583 0.000000 0.000009
										CHANNELS 6 Xposition Yposition Zposition Xrotation Yrotation Zrotation
										End Site
										{
											OFFSET 0.000000 -1.994583 0.000000
										}
									}
								}
							}
						}
					}
				}
			}
		}
	}
	JOINT LeftUpLeg
	{
		OFFSET 9.994125 -0.000015 0.000017
		CHANNELS 6 Xposition Yposition Zposition Xrotation Yrotation Zrotation
		JOINT LeftLeg
		{
			OFFSET -0.000064 -41.202610 0.000001
			CHANNELS 6 Xposition Yposition Zposition Xrotation Yrotation Zrotation
			JOINT LeftFoot
			{
				OFFSET -0.000062 -40.704849 0.000002
				CHANNELS 6 Xposition Yposition Zposition Xrotation Yrotation Zrotation
				JOINT LeftToeBase
				{
					OFFSET -0.000036 -8.953565 12.877190
					CHANNELS 6 Xposition Yposition Zposition Xrotation Yrotation Zrotation
					JOINT LeftToeNub
					{
						OFFSET 0.000000 0.000000 5.535665
						CHANNELS 6 Xposition Yposition Zposition Xrotation Yrotation Zrotation
						End Site
						{
							OFFSET 0.000009 5.535664 0.000000
						}
					}
				}
			}
		}
	}
	JOINT RightUpLeg
	{
		OFFSET -9.994125 0.000015 -0.000009
		CHANNELS 6 Xposition Yposition Zposition Xrotation Yrotation Zrotation
		JOINT RightLeg
		{
			OFFSET -0.000064 -41.202610 0.000000
			CHANNELS 6 Xposition Yposition Zposition Xrotation Yrotation Zrotation
			JOINT RightFoot
			{
				OFFSET -0.000062 -40.704849 -0.000000
				CHANNELS 6 Xposition Yposition Zposition Xrotation Yrotation Zrotation
				JOINT RightToeBase
				{
					OFFSET -0.000036 -8.953565 12.877190
					CHANNELS 6 Xposition Yposition Zposition Xrotation Yrotation Zrotation
					JOINT RightToeNub
					{
						OFFSET 0.000000 0.000000 5.535664
						CHANNELS 6 Xposition Yposition Zposition Xrotation Yrotation Zrotation
						End Site
						{
							OFFSET 0.000009 5.535664 0.000000
						}
					}
				}
			}
		}
	}
}
MOTION
Frames: 4
Frame Time: 0.008333
-0.000000 91.740540 0.000000 -0.000000 0.000000 0.000000 0.000013 10.005943 -0.000000 0.000000 0.000000 -0.000000 -0.000001 21.665001 0.000000 0.000000 0.000000 0.000000 -0.000001 25.832993 0.000001 0.000001 -0.000000 -0.000000 -0.000000 13.820404 2.436910 0.000001 -0.000000 -0.000000 -0.000001 21.600510 -0.000000 0.000000 -0.000000 0.000000 3.044999 21.665024 -0.000000 -0.000000 0.000000 0.000000 15.550005 0.000031 -0.000001 -0.000000 0.000000 0.000000 26.970001 0.000092 -0.000001 0.000000 0.000000 0.000000 26.562431 0.000031 -0.000002 -0.000000 0.000000 -0.000000 3.791199 -1.249008 3.194315 -0.000000 0.000000 0.000000 3.560013 0.000031 -0.000000 -0.000000 0.000000 0.000000 2.582535 0.000031 -0.000000 0.000000 0.000000 0.000000 9.811714 0.000031 2.347278 -0.000000 0.000000 -0.000000 3.256783 0.000031 0.000000 -0.000000 0.000000 -0.000000 2.772133 0.000031 0.000000 -0.000000 0.000000 -0.000000 10.341553 0.000031 0.312984 -0.000000 0.000000 -0.000000 3.430656 0.000031 -0.000000 -0.000000 0.000000 -0.000000 2.954636 0.000031 0.000000 -0.000000 0.000000 -0.000000 9.988426 0.000031 -1.780176 -0.000000 0.000000 -0.000000 3.241226 0.000031 -0.000000 -0.000000 0.000000 -0.000000 2.763344 0.000031 -0.000000 -0.000000 0.000000 -0.000000 8.983963 0.000031 -3.651950 -0.000000 0.000000 -0.000000 2.784134 0.000031 -0.000001 -0.000000 0.000000 -0.000000 1.994598 0.000031 -0.000000 -0.000000 0.000000 -0.000000 -3.045001 21.665009 0.000000 -0.000000 0.000000 0.000000 -15.550003 0.000092 0.000001 -0.000000 0.000000 0.000000 -26.970005 0.000046 0.000115 -0.000000 0.000000 0.000000 -26.562428 -0.000000 0.000113 -0.000000 0.000000 0.000000 -3.791176 -1.249023 3.194328 -0.000000 0.000000 0.000000 -3.560013 0.000031 0.000015 0.000000 0.000000 0.000000 -2.582535 0.000031 0.000010 0.000000 0.000000 -0.000000 -9.811707 0.000015 2.347322 -0.000000 0.000000 0.000000 -3.256798 0.000031 0.000015 -0.000000 0.000000 0.000000 -2.772156 0.000031 0.000012 -0.000000 0.000000 0.000000 -10.341553 0.000015 0.313044 -0.000000 0.000000 0.000000 -3.430672 0.000031 0.000015 -0.000000 0.000000 0.000000 -2.954651 0.000031 0.000013 -0.000000 0.000000 0.000000 -9.988419 0.000015 -1.780128 -0.000000 0.000000 0.000000 -3.241219 0.000031 0.000013 -0.000000 0.000000 0.000000 -2.763344 0.000031 0.000011 -0.000000 0.000000 -0.000000 -8.983971 0.000015 -3.651913 -0.000000 0.000000 0.000000 -2.784126 0.000031 0.000012 -0.000000 0.000000 0.000000 -1.994598 0.000031 0.000009 -0.000000 0.000000 0.000000 9.994125 -0.000015 0.000017 0.000000 -0.000000 -0.000000 -0.000064 -41.202610 0.000001 0.000000 -0.000000 0.000000 -0.000062 -40.704849 0.000002 0.000000 -0.000000 0.000000 -0.000037 -8.953565 12.877192 -0.000000 0.000000 -0.000000 -0.000002 0.000000 5.535665 -0.000000 0.000000 -0.000000 -9.994126 0.000015 -0.000009 0.000000 -0.000000 -0.000000 -0.000064 -41.202610 -0.000000 -0.000000 -0.000000 0.000000 -0.000062 -40.704849 -0.000000 0.000000 -0.000000 0.000000 -0.000037 -8.953566 12.877191 -0.000000 0.000000 -0.000000 -0.000002 0.000000 5.535666 0.000000 0.000000 -0.000000 
-0.080409 91.584496 197.205322 4.988741 7.353364 0.444867 0.000016 10.005936 0.000003 -5.960861 -5.514907 -0.800857 -0.000001 21.665001 0.000006 0.903417 -5.781320 -0.808300 -0.000000 25.832993 -0.000012 -5.126959 0.715464 -0.359280 0.000000 13.820396 2.436922 5.941446 0.589527 2.586417 -0.000000 21.600510 0.000002 0.000000 0.000000 0.000000 3.045001 21.665030 -0.000008 -5.216230 10.888977 -4.331379 15.550014 0.000012 -0.000013 19.949256 -8.465004 -78.516330 26.970007 0.000076 0.000016 -0.000000 -32.182670 -0.000001 26.562435 0.000024 0.000011 -17.785072 6.040739 2.665933 3.791183 -1.249024 3.194335 0.000000 -0.000001 0.000000 3.559997 0.000031 0.000017 0.000000 -0.000000 0.000000 2.582526 0.000015 0.000016 0.000000 -0.000000 0.000000 9.811699 0.000015 2.347304 0.000000 -0.000001 -0.000000 3.256775 0.000015 0.000000 0.000000 -0.000000 -0.000000 2.772133 0.000015 0.000017 0.000000 -0.000000 0.000000 10.341545 0.000015 0.313015 -0.000000 -0.000001 -0.000000 3.430657 0.000015 -0.000003 -0.000000 -0.000000 -0.000000 2.954644 0.000015 0.000024 -0.000000 -0.000000 -0.000000 9.988411 0.000015 -1.780147 0.000000 -0.000001 -0.000000 3.241211 0.000015 0.000004 -0.000000 -0.000001 -0.000000 2.763321 0.000015 -0.000027 -0.000000 -0.000000 -0.000000 8.983955 -0.000000 -3.651919 0.000000 -0.000001 0.000000 2.784111 -0.000000 -0.000001 -0.000000 -0.000001 -0.000000 1.994591 0.000015 -0.000004 0.000000 -0.000001 0.000000 -3.045001 21.665005 -0.000008 -7.301411 2.695860 7.422931 -15.550015 0.000068 0.000003 16.153225 -9.072311 79.541569 -26.970007 0.000022 0.000100 -0.000038 25.928621 0.000008 -26.562429 -0.000015 0.000136 1.472993 -5.897222 4.057590 -3.791168 -1.249039 3.194331 -0.000000 -0.000000 -0.000000 -3.560004 0.000015 0.000035 0.000000 0.000001 -0.000000 -2.582527 0.000015 0.000045 0.000000 0.000000 -0.000000 -9.811690 0.000000 2.347320 -0.000000 0.000000 -0.000000 -3.256774 0.000015 0.000021 -0.000000 0.000000 -0.000000 -2.772148 0.000015 0.000035 -0.000000 0.000001 -0.000000 -10.341537 0.000000 0.313039 -0.000001 0.000000 -0.000000 -3.430664 0.000015 0.000007 -0.000000 0.000000 -0.000000 -2.954635 0.000015 0.000038 -0.000000 0.000000 -0.000000 -9.988411 0.000000 -1.780143 -0.000000 0.000000 0.000000 -3.241210 0.000015 0.000030 0.000001 0.000000 -0.000000 -2.763336 0.000015 0.000010 -0.000000 -0.000001 -0.000000 -8.983963 0.000000 -3.651927 -0.000001 0.000000 -0.000000 -2.784118 0.000015 0.000015 0.000000 -0.000001 -0.000000 -1.994583 0.000015 -0.000016 -0.000000 -0.000001 -0.000000 9.994125 -0.000014 0.000020 -5.982014 -2.271710 -0.563510 -0.000064 -41.202602 0.000015 8.675014 -0.000012 0.000017 -0.000063 -40.704845 -0.000001 -8.292502 3.254873 -0.301196 -0.000041 -8.953566 12.877192 -1.786412 2.205390 -0.896684 -0.000001 -0.000000 5.535666 0.000000 -0.000000 0.000000 -9.994125 0.000021 -0.000006 -6.212136 -7.495886 -2.694302 -0.000064 -41.202610 0.000024 9.940243 -0.000014 0.000019 -0.000062 -40.704849 -0.000023 -10.269320 -2.076566 -0.068678 -0.000038 -8.953566 12.877177 -2.081442 -1.804512 -0.026750 -0.000003 -0.000001 5.535677 -0.000000 -0.000001 -0.000000 
-0.079059 91.584991 197.203903 5.011333 7.301460 0.438407 0.000013 10.005943 -0.000017 -5.960147 -5.516711 -0.790462 -0.000002 21.665001 0.000035 0.899762 -5.783744 -0.809862 -0.000003 25.832993 0.000007 -5.141417 0.710946 -0.372937 -0.000000 13.820394 2.436885 5.903630 0.581938 2.590186 -0.000000 21.600540 0.000002 -0.000000 0.000000 -0.000000 3.044999 21.665026 -0.000007 -5.223985 10.826040 -4.318306 15.550019 0.000000 -0.000006 20.076735 -8.233051 -78.526521 26.970005 0.000077 0.000007 -0.000001 -32.273750 0.000001 26.562449 0.000022 -0.000025 -18.380632 5.764553 3.096453 3.791191 -1.249023 3.194298 -0.000002 -0.000000 0.000000 3.560005 0.000016 -0.000017 -0.000001 -0.000001 -0.000000 2.582527 0.000016 -0.000032 -0.000001 -0.000000 0.000000 9.811707 0.000016 2.347249 -0.000001 -0.000001 -0.000000 3.256767 0.000016 -0.000009 -0.000001 -0.000001 -0.000000 2.772126 0.000016 -0.000014 -0.000001 -0.000001 -0.000000 10.341553 0.000016 0.312950 -0.000002 -0.000001 0.000000 3.430642 0.000031 -0.000008 -0.000002 -0.000001 -0.000000 2.954636 0.000016 -0.000032 -0.000002 -0.000001 -0.000000 9.988426 0.000016 -1.780188 -0.000001 -0.000001 -0.000000 3.241211 0.000016 -0.000032 -0.000002 -0.000001 0.000000 2.763329 0.000016 -0.000020 -0.000002 -0.000001 -0.000000 8.983955 0.000016 -3.651984 -0.000001 -0.000001 0.000000 2.784111 0.000016 -0.000033 -0.000002 -0.000001 -0.000000 1.994576 0.000016 -0.000012 -0.000002 -0.000001 -0.000000 -3.045006 21.665010 -0.000010 -7.291230 2.775596 7.322985 -15.550012 0.000044 0.000012 16.480642 -7.618611 79.555065 -26.970007 0.000021 0.000138 -0.000037 26.108306 0.000008 -26.562420 -0.000013 0.000108 0.570179 -5.622785 4.147360 -3.791167 -1.249039 3.194340 0.000000 0.000001 -0.000000 -3.559998 0.000015 0.000049 -0.000001 -0.000000 -0.000000 -2.582519 0.000031 0.000033 -0.000000 0.000000 -0.000000 -9.811698 -0.000000 2.347328 0.000000 0.000000 -0.000000 -3.256783 0.000016 0.000035 -0.000001 0.000000 0.000000 -2.772156 0.000031 0.000018 0.000000 -0.000001 0.000000 -10.341537 -0.000000 0.313050 -0.000000 0.000000 -0.000000 -3.430664 0.000016 0.000034 -0.000001 0.000000 -0.000000 -2.954643 0.000015 0.000035 0.000000 -0.000001 -0.000000 -9.988402 -0.000000 -1.780122 0.000000 0.000000 -0.000000 -3.241211 0.000015 0.000024 -0.000000 -0.000001 -0.000000 -2.763336 0.000015 0.000018 0.000001 -0.000001 -0.000000 -8.983962 -0.000015 -3.651890 -0.000000 0.000000 -0.000000 -2.784126 0.000015 0.000019 0.000000 -0.000001 -0.000000 -1.994583 0.000015 0.000011 0.000000 -0.000001 -0.000000 9.994123 -0.000014 0.000009 -6.001847 -2.226672 -0.558708 -0.000065 -41.202606 0.000006 8.679114 -0.000013 0.000017 -0.000063 -40.704849 -0.000009 -8.292847 3.279771 -0.294137 -0.000038 -8.953565 12.877202 -1.857630 2.174493 -0.887301 -0.000007 0.000001 5.535684 -0.000000 -0.000001 -0.000000 -9.994126 0.000005 -0.000033 -6.235273 -7.453873 -2.685487 -0.000066 -41.202610 0.000020 9.933334 -0.000014 0.000019 -0.000061 -40.704845 0.000002 -10.259407 -2.074889 -0.065963 -0.000037 -8.953566 12.877206 -2.071668 -1.808913 -0.025742 -0.000001 -0.000002 5.535673 0.000000 0.000000 -0.000000 
-0.087906 91.585106 197.206039 5.037537 7.255764 0.432681 0.000015 10.005943 -0.000003 -5.973215 -5.520032 -0.793211 -0.000001 21.665001 0.000013 0.897027 -5.787903 -0.809281 -0.000001 25.832977 -0.000006 -5.135505 0.712750 -0.400199 -0.000001 13.820396 2.436927 5.832135 0.578175 2.588534 -0.000002 21.600510 -0.000010 -0.000000 0.000000 -0.000000 3.045002 21.665047 0.000000 -5.230906 10.772716 -4.293969 15.550016 0.000004 -0.000015 20.254789 -8.311101 -78.348082 26.970022 0.000076 -0.000017 -0.000001 -32.340392 0.000000 26.562416 0.000021 -0.000038 -19.367218 5.609128 3.208979 3.791190 -1.249023 3.194284 -0.000000 -0.000000 0.000000 3.560004 0.000000 -0.000004 -0.000000 -0.000001 0.000000 2.582519 0.000016 0.000017 0.000000 -0.000001 0.000000 9.811714 0.000000 2.347256 -0.000000 -0.000000 0.000000 3.256775 0.000031 0.000006 -0.000001 -0.000001 -0.000000 2.772133 0.000031 -0.000006 -0.000001 -0.000001 -0.000000 10.341553 0.000015 0.312957 -0.000001 -0.000000 0.000000 3.430649 0.000031 -0.000013 -0.000001 -0.000001 -0.000000 2.954628 0.000016 -0.000000 -0.000001 -0.000001 -0.000000 9.988419 0.000015 -1.780197 -0.000000 -0.000000 0.000000 3.241211 0.000031 -0.000007 -0.000002 -0.000001 0.000000 2.763329 0.000016 0.000025 -0.000002 -0.000001 0.000000 8.983954 0.000015 -3.651965 -0.000000 -0.000000 0.000000 2.784111 0.000030 -0.000002 -0.000000 -0.000001 0.000000 1.994591 0.000015 -0.000000 -0.000000 -0.000001 0.000000 -3.045002 21.665001 -0.000021 -7.286331 2.858940 7.246009 -15.549993 0.000068 -0.000007 16.772450 -6.437505 79.545039 -26.969986 0.000007 0.000122 -0.000036 26.307782 0.000009 -26.562414 -0.000013 0.000117 -0.193392 -5.485797 4.381225 -3.791168 -1.249038 3.194304 -0.000001 0.000001 0.000000 -3.559990 0.000015 0.000044 0.000000 0.000001 -0.000000 -2.582520 0.000015 0.000003 0.000000 0.000000 0.000000 -9.811691 0.000000 2.347300 -0.000000 0.000000 0.000000 -3.256774 0.000015 0.000003 -0.000000 0.000000 -0.000000 -2.772140 0.000016 0.000013 -0.000000 0.000000 -0.000000 -10.341530 0.000000 0.313014 -0.000001 0.000000 0.000000 -3.430664 0.000015 -0.000017 -0.000000 -0.000000 -0.000000 -2.954643 0.000016 0.000007 -0.000001 0.000000 0.000000 -9.988411 0.000000 -1.780155 -0.000000 0.000000 0.000000 -3.241203 0.000015 0.000014 -0.000000 0.000000 -0.000000 -2.763336 0.000015 -0.000016 -0.000000 0.000000 0.000000 -8.983971 0.000000 -3.651928 -0.000001 0.000000 -0.000000 -2.784119 0.000015 -0.000004 -0.000000 0.000000 0.000000 -1.994591 0.000015 0.000009 -0.000000 0.000000 0.000000 9.994129 -0.000014 0.000021 -6.033106 -2.184943 -0.548467 -0.000067 -41.202602 0.000019 8.699479 -0.000012 0.000017 -0.000065 -40.704845 0.000007 -8.303907 3.288921 -0.295938 -0.000039 -8.953565 12.877210 -1.818890 2.185087 -0.890537 -0.000002 -0.000001 5.535666 -0.000000 -0.000001 0.000000 -9.994123 0.000015 -0.000027 -6.259228 -7.408343 -2.675069 -0.000065 -41.202618 0.000025 9.920024 -0.000014 0.000019 -0.000063 -40.704842 0.000006 -10.246838 -2.051435 -0.103015 -0.000038 -8.953565 12.877181 -2.078738 -1.836393 -0.018089 -0.000003 -0.000001 5.535654 -0.000000 0.000000 0.000000 
